<svg xmlns="http://www.w3.org/2000/svg" xmlns:xlink="http://www.w3.org/1999/xlink" width="45" height="28.82" viewBox="0 0 45 28.82">
  <defs>
    <style>
      .cls-1 {
        fill-rule: evenodd;
        filter: url(#filter);
      }
    </style>
    <filter id="filter" x="918.5" y="6470.59" width="45" height="28.82" filterUnits="userSpaceOnUse">
      <feFlood result="flood" flood-color="#fff"/>
      <feComposite result="composite" operator="in" in2="SourceGraphic"/>
      <feBlend result="blend" in2="SourceGraphic"/>
    </filter>
  </defs>
  <path id="AMEX" class="cls-1" d="M942.2,6480.24a0.923,0.923,0,0,0-1.053.41l-3.893,6.38-3.893-6.38a0.926,0.926,0,0,0-1.053-.41,0.953,0.953,0,0,0-.679.92v6.72h-0.2l-1.7-6.95a0.941,0.941,0,0,0-.91-0.73h-1.875a0.951,0.951,0,0,0-.84.53l-3.75,7.68a0.977,0.977,0,0,0,.42,1.29,0.916,0.916,0,0,0,.42.1,0.931,0.931,0,0,0,.84-0.53l3.49-7.15h0.562l1.7,6.95a0.941,0.941,0,0,0,.909.73h1.875a0.949,0.949,0,0,0,.938-0.96v-4.33l2.955,4.84a0.962,0.962,0,0,0,1.59,0l2.955-4.84v4.33a0.938,0.938,0,1,0,1.875,0v-7.68A0.953,0.953,0,0,0,942.2,6480.24Zm14.192,4.76,3.086-3.16a0.979,0.979,0,0,0,0-1.36,0.93,0.93,0,0,0-1.325,0l-3.087,3.16-3.086-3.16a0.926,0.926,0,0,0-.664-0.28h-5.625a0.949,0.949,0,0,0-.937.96v7.68a0.949,0.949,0,0,0,.937.96h5.625a0.926,0.926,0,0,0,.664-0.28l3.086-3.16,3.087,3.16a0.924,0.924,0,0,0,1.325,0,0.979,0.979,0,0,0,0-1.36Zm-5.464,2.88h-4.3v-5.76h4.3l2.813,2.88Zm-2.424-3.84h-2.813a0.96,0.96,0,0,0,0,1.92H948.5A0.96,0.96,0,0,0,948.5,6484.04Zm-18.75,1.92h-4.688a0.96,0.96,0,0,0,0,1.92h4.688A0.96,0.96,0,0,0,929.75,6485.96Zm27.187-15.36H925.062a6.647,6.647,0,0,0-6.562,6.72v15.36a6.647,6.647,0,0,0,6.562,6.72h31.875a6.647,6.647,0,0,0,6.563-6.72v-15.36A6.647,6.647,0,0,0,956.937,6470.6Zm4.688,22.08a4.748,4.748,0,0,1-4.688,4.8H925.062a4.747,4.747,0,0,1-4.687-4.8v-15.36a4.747,4.747,0,0,1,4.687-4.8h31.875a4.748,4.748,0,0,1,4.688,4.8v15.36Z" transform="translate(-918.5 -6470.59)"/>
</svg>
