<svg xmlns="http://www.w3.org/2000/svg" xmlns:xlink="http://www.w3.org/1999/xlink" width="52.94" height="24.32" viewBox="0 0 52.94 24.32">
  <defs>
    <style>
      .cls-1 {
        fill-rule: evenodd;
        filter: url(#filter);
      }
    </style>
    <filter id="filter" x="1105.53" y="6474.84" width="52.94" height="24.32" filterUnits="userSpaceOnUse">
      <feFlood result="flood" flood-color="#fff"/>
      <feComposite result="composite" operator="in" in2="SourceGraphic"/>
      <feBlend result="blend" in2="SourceGraphic"/>
    </filter>
  </defs>
  <path id="Discover" class="cls-1" d="M1144.95,6476.29v-1.23h-4.05v7.23h4.05v-1.23h-2.62v-1.95h2.53v-1.22h-2.53v-1.6h2.62Zm4,2.96a1.934,1.934,0,0,0,1.67-2.05c0-1.36-.94-2.14-2.59-2.14h-2.12v7.23h1.42v-2.9h0.19l1.98,2.9h1.76Zm-1.2-.86h-0.42l0.01-2.19h0.43c0.9,0,1.38.37,1.38,1.07A1.148,1.148,0,0,1,1147.75,6478.39Zm3.51-3.47a0.553,0.553,0,0,0-.57.55,0.568,0.568,0,0,0,.57.56A0.555,0.555,0,0,0,1151.26,6474.92Zm-0.01,1.01a0.455,0.455,0,0,1-.44-0.46,0.445,0.445,0,1,1,.89,0A0.457,0.457,0,0,1,1151.25,6475.93Zm0.08-.4a0.173,0.173,0,0,0,.14-0.18,0.2,0.2,0,0,0-.25-0.19h-0.2v0.63h0.15v-0.25l0.18,0.25h0.19Zm-0.13-.09h-0.03v-0.17h0.03a0.09,0.09,0,0,1,.11.08A0.091,0.091,0,0,1,1151.2,6475.44Zm-38.96-.38h1.43v7.23h-1.43v-7.23Zm4.92,2.77c-0.86-.31-1.11-0.52-1.11-0.91a0.941,0.941,0,0,1,1.07-.8,1.5,1.5,0,0,1,1.15.59l0.75-.97a3.247,3.247,0,0,0-2.16-.8,2.14,2.14,0,0,0-2.28,2.07c0,1,.46,1.51,1.8,1.98a6.983,6.983,0,0,1,.99.41,0.87,0.87,0,0,1,.43.75,1.035,1.035,0,0,1-1.11,1.02,1.705,1.705,0,0,1-1.56-.96l-0.93.87a2.851,2.851,0,0,0,2.54,1.38,2.345,2.345,0,0,0,2.53-2.37C1119.27,6478.94,1118.79,6478.42,1117.16,6477.83Zm2.37,21.31h38.93v-13.83S1144.71,6494.86,1119.53,6499.14Zm-11.89-24.08h-2.1v7.23h2.09a3.813,3.813,0,0,0,2.61-.84A3.607,3.607,0,0,0,1107.64,6475.06Zm1.67,5.43a2.737,2.737,0,0,1-1.96.57h-0.38v-4.77h0.38a2.678,2.678,0,0,1,1.96.58A2.468,2.468,0,0,1,1109.31,6480.49Zm29.39-5.43-1.98,4.86-1.95-4.86h-1.57l3.12,7.41h0.76l3.17-7.41h-1.55Zm-8.95-.2a3.894,3.894,0,0,0-3.59,2.34,3.762,3.762,0,0,0-.31,1.5,3.906,3.906,0,0,0,7.62,1.14,1.169,1.169,0,0,0,.06-0.2c0.01-.06.03-0.11,0.04-0.17a3.3,3.3,0,0,0,.08-0.77A3.867,3.867,0,0,0,1129.75,6474.86Zm-6.16,1.33a2.41,2.41,0,0,1,1.79.81v-1.66a3.691,3.691,0,0,0-1.75-.44,3.832,3.832,0,0,0-3.91,3.78,3.771,3.771,0,0,0,3.87,3.77,4,4,0,0,0,1.79-.42v-1.66a2.311,2.311,0,0,1-1.72.79,2.376,2.376,0,0,1-2.46-2.49A2.411,2.411,0,0,1,1123.59,6476.19Z" transform="translate(-1105.53 -6474.84)"/>
</svg>
