<svg xmlns="http://www.w3.org/2000/svg" xmlns:xlink="http://www.w3.org/1999/xlink" width="48" height="29" viewBox="0 0 48 29">
  <defs>
    <style>
      .cls-1 {
        fill-rule: evenodd;
        filter: url(#filter);
      }
    </style>
    <filter id="filter" x="1040" y="6470" width="48" height="29" filterUnits="userSpaceOnUse">
      <feFlood result="flood" flood-color="#fff"/>
      <feComposite result="composite" operator="in" in2="SourceGraphic"/>
      <feBlend result="blend" in2="SourceGraphic"/>
    </filter>
  </defs>
  <path id="Maestro" class="cls-1" d="M1086.96,6492.31a0.4,0.4,0,0,0-.17-0.17,0.465,0.465,0,0,0-.23-0.06,0.493,0.493,0,0,0-.23.06,0.462,0.462,0,0,0-.17.17,0.533,0.533,0,0,0-.06.24,0.456,0.456,0,0,0,.23.4,0.51,0.51,0,0,0,.23.07,0.476,0.476,0,0,0,.23-0.07,0.4,0.4,0,0,0,.17-0.17,0.389,0.389,0,0,0,.07-0.23A0.442,0.442,0,0,0,1086.96,6492.31Zm-0.24.41h-0.1l-0.06-.15h-0.06v0.15h-0.08v-0.39h0.16a0.217,0.217,0,0,1,.1.02,0.153,0.153,0,0,1,.04.1,0.11,0.11,0,0,1-.06.1Zm-0.12-.31a0.092,0.092,0,0,0-.06-0.01h-0.04v0.1h0.06a0.1,0.1,0,0,0,.04-0.01A0.05,0.05,0,0,0,1086.6,6492.41ZM1073.63,6470a14.241,14.241,0,0,0-9.64,3.75,14.216,14.216,0,0,0-9.63-3.75h-0.09a14.5,14.5,0,0,0,.09,28.99,14.208,14.208,0,0,0,9.63-3.74,14.806,14.806,0,0,1-1.47-1.59h2.97a13.479,13.479,0,0,1-1.46,1.56h0a0.138,0.138,0,0,1-.04.03,14.267,14.267,0,0,0,9.65,3.75,14.423,14.423,0,0,0,14.36-14.5v-0.01A14.43,14.43,0,0,0,1073.63,6470Zm-10.94,5.25h2.73a14.1,14.1,0,0,1,1.11,1.55h-4.87C1061.97,6476.28,1062.32,6475.75,1062.69,6475.25Zm-1.88,3.07h6.55a13.909,13.909,0,0,1,.62,1.55h-7.94C1060.11,6479.72,1060.39,6479.12,1060.81,6478.32Zm-7.24,9.66h-1.7l1.01-5.38-2.33,5.38H1049l-0.28-5.34-1.02,5.34h-1.54l1.32-6.99h2.66l0.12,4.33,1.89-4.33h2.76Zm6.03-3.02-0.36,2.02-0.06.36-0.04.28-0.03.2-0.02.15h-1.42l0.04-.59a2.25,2.25,0,0,1-1.78.69,1.475,1.475,0,0,1-1.55-1.55c0-1.38,1.1-2.19,2.99-2.19,0.18,0,.42.02,0.69,0.04a1.641,1.641,0,0,0,.06-0.36c0-.38-0.31-0.52-1.1-0.52a5.923,5.923,0,0,0-1.4.16l-0.24.06-0.14.04,0.22-1.28a7.54,7.54,0,0,1,2.03-.3c1.46,0,2.23.58,2.23,1.66A6.429,6.429,0,0,1,1059.6,6484.96Zm3.39-2.8a2.045,2.045,0,0,1,2.3,2.06,5.279,5.279,0,0,1-.21,1.4h-3.37a0.689,0.689,0,0,0-.02.18c0,0.66.51,0.99,1.49,0.99a4.436,4.436,0,0,0,1.76-.36l-0.28,1.43a6.737,6.737,0,0,1-1.73.23c-1.91,0-2.9-.88-2.9-2.55A3.1,3.1,0,0,1,1062.99,6482.16Zm3.56,10.01h-5.1a14.513,14.513,0,0,1-.85-1.55h6.79A14.441,14.441,0,0,1,1066.55,6492.17Zm3.13-8.57a11.973,11.973,0,0,0-1.24-.08c-0.55,0-.84.15-0.84,0.46,0,0.26.08,0.33,0.8,0.62a1.553,1.553,0,0,1,1.21,1.58c0,1.29-.83,1.89-2.66,1.89-0.22,0-.52-0.02-0.93-0.04-0.2-.02-0.37-0.04-0.47-0.06l-0.3-.05-0.08-.02,0.24-1.31a5.28,5.28,0,0,0,1.54.23c0.67,0,.98-0.16.98-0.52,0-.26-0.1-0.34-0.79-0.62a1.7,1.7,0,0,1-1.32-1.59c0-1.05.67-1.92,2.58-1.92a13.768,13.768,0,0,1,1.52.11Zm2.66,3.1a1.4,1.4,0,0,0,.44-0.05l-0.22,1.26a4.382,4.382,0,0,1-1.22.19,1.17,1.17,0,0,1-1.34-1.25,4.746,4.746,0,0,1,.04-0.51l0.1-.56,0.08-.45,0.8-4.34h1.68l-0.24,1.31h0.87l-0.24,1.38h-0.88l-0.44,2.37a1.111,1.111,0,0,0-.02.23C1071.75,6486.58,1071.93,6486.7,1072.34,6486.7Zm4.15-2.81c-0.81,0-1.07.61-1.68,4.09h-1.71l1.04-5.68h1.54l-0.16.86a1.823,1.823,0,0,1,1.48-.92,1.087,1.087,0,0,1,.18.01s0.06,0.01.15,0.03c0.02,0.01.04,0.01,0.18,0.07l-0.61,1.6-0.2-.04A1.646,1.646,0,0,0,1076.49,6483.89Zm3.01,4.24a2.423,2.423,0,0,1-2.7-2.62,3.178,3.178,0,0,1,3.35-3.38,2.459,2.459,0,0,1,2.7,2.56,4.054,4.054,0,0,1-.04.71A3,3,0,0,1,1079.5,6488.13Zm3.5-.15a0.445,0.445,0,1,1,.44-0.45A0.448,0.448,0,0,1,1083,6487.98Zm0-.79a0.352,0.352,0,0,0-.35.34,0.346,0.346,0,0,0,.35.34,0.327,0.327,0,0,0,.32-0.34A0.333,0.333,0,0,0,1083,6487.19Zm0.16,0.54h-0.11l-0.06-.16h-0.06v0.16h-0.08v-0.39h0.16a0.256,0.256,0,0,1,.11.02,0.153,0.153,0,0,1,.04.1,0.11,0.11,0,0,1-.06.1Zm-0.13-.32h-0.1v0.1h0.06a0.1,0.1,0,0,0,.04-0.01,0.042,0.042,0,0,0,.03-0.05A0.037,0.037,0,0,0,1083.03,6487.41Zm-20.06-3.95a1.135,1.135,0,0,0-1.09,1.02h1.89v-0.29A0.7,0.7,0,0,0,1062.97,6483.46Zm-5.5,1.96c-0.95,0-1.44.29-1.44,0.87a0.55,0.55,0,0,0,.61.58,1.316,1.316,0,0,0,1.22-1.43C1057.67,6485.43,1057.59,6485.42,1057.47,6485.42Zm22.64-1.9c-0.87,0-1.4,1.04-1.4,1.95a1.069,1.069,0,0,0,.97,1.28,1.668,1.668,0,0,0,1.3-1.4,3.51,3.51,0,0,0,.06-0.68A0.974,0.974,0,0,0,1080.11,6483.52Z" transform="translate(-1040 -6470)"/>
</svg>
