<svg xmlns="http://www.w3.org/2000/svg" xmlns:xlink="http://www.w3.org/1999/xlink" width="42" height="26.06" viewBox="0 0 42 26.06">
  <defs>
    <style>
      .cls-1 {
        fill-rule: evenodd;
        filter: url(#filter);
      }
    </style>
    <filter id="filter" x="979" y="6526.97" width="42" height="26.06" filterUnits="userSpaceOnUse">
      <feFlood result="flood" flood-color="#fff"/>
      <feComposite result="composite" operator="in" in2="SourceGraphic"/>
      <feBlend result="blend" in2="SourceGraphic"/>
    </filter>
  </defs>
  <path id="Mastercard" class="cls-1" d="M1007.91,6526.98a13.132,13.132,0,0,0-7.91,2.64,13.02,13.02,0,1,0,0,20.76A13.05,13.05,0,1,0,1007.91,6526.98Zm-7.91,5.96a10.965,10.965,0,0,1,1.1,1.44h-2.2A10.681,10.681,0,0,1,1000,6532.94Zm-2.236,3.89h4.476a9.8,9.8,0,0,1,.41,1.95h-5.3A10.25,10.25,0,0,1,997.764,6536.83Zm-0.417,4.39h5.3a9.8,9.8,0,0,1-.41,1.95h-4.476A10.25,10.25,0,0,1,997.347,6541.22Zm2.653,5.84a10.681,10.681,0,0,1-1.1-1.44h2.2A10.965,10.965,0,0,1,1000,6547.06Zm7.91,3.51a10.659,10.659,0,0,1-6.07-1.89,12.939,12.939,0,0,0,0-17.36A10.594,10.594,0,1,1,1007.91,6550.57Z" transform="translate(-979 -6526.97)"/>
</svg>
