<svg xmlns="http://www.w3.org/2000/svg" xmlns:xlink="http://www.w3.org/1999/xlink" width="49.94" height="13.94" viewBox="0 0 49.94 13.94">
  <defs>
    <style>
      .cls-1 {
        fill-rule: evenodd;
        filter: url(#filter);
      }
    </style>
    <filter id="filter" x="1039.06" y="6533.03" width="49.94" height="13.94" filterUnits="userSpaceOnUse">
      <feFlood result="flood" flood-color="#fff"/>
      <feComposite result="composite" operator="in" in2="SourceGraphic"/>
      <feBlend result="blend" in2="SourceGraphic"/>
    </filter>
  </defs>
  <path id="Paypal" class="cls-1" d="M1048,6535.29a2.04,2.04,0,0,0-.74-0.83,3.378,3.378,0,0,0-1.19-.44,8.416,8.416,0,0,0-1.6-.13h-2.85a0.713,0.713,0,0,0-.65.53l-1.91,8.6a0.407,0.407,0,0,0,.41.53h1.36a0.693,0.693,0,0,0,.65-0.53l0.47-2.09a0.693,0.693,0,0,1,.65-0.53h0.39a6.369,6.369,0,0,0,3.88-1.06,3.311,3.311,0,0,0,1.39-2.78A2.687,2.687,0,0,0,1048,6535.29Zm-2.94,2.81a2.792,2.792,0,0,1-1.72.47h-0.33a0.414,0.414,0,0,1-.41-0.54l0.41-1.82a0.681,0.681,0,0,1,.64-0.54h0.45a2.1,2.1,0,0,1,1.18.27,0.935,0.935,0,0,1,.4.84A1.561,1.561,0,0,1,1045.06,6538.1Zm41.73-3.54-0.08.03-0.12.01-0.14-.02-0.07-.07-0.03-.11v-0.8h0.45v-0.19h-0.45v-0.39h-0.23v0.39h-0.15v0.19h0.15v0.73l0.11,0.36,0.31,0.11,0.13-.01,0.13-.03v-0.2h-0.01Zm2.11-1.05-0.32-.14-0.24.05-0.25.17-0.14-.16-0.23-.06-0.22.05-0.21.14v-0.15h-0.22v1.36h0.22v-1.02l0.19-.11,0.18-.05,0.15,0.03,0.08,0.07,0.03,0.14,0.01,0.16v0.78h0.22v-0.94l-0.01-.07,0.19-.12,0.19-.05,0.14,0.03,0.08,0.08,0.03,0.13,0.01,0.17v0.78h0.23v-0.89Zm-34.34,3.01a4.983,4.983,0,0,0-2.43-.45,11.464,11.464,0,0,0-1.65.13c-0.41.07-.44,0.08-0.7,0.14a0.807,0.807,0,0,0-.59.65l-0.17.7c-0.09.45,0.16,0.44,0.26,0.4a7.383,7.383,0,0,1,.82-0.25,5.492,5.492,0,0,1,1.27-.17,3.314,3.314,0,0,1,1.24.18,0.641,0.641,0,0,1,.41.63l-0.03.2-0.19.13c-0.77.05-1.33,0.12-2.01,0.22a6.128,6.128,0,0,0-1.72.49,2.765,2.765,0,0,0-1.18.95,2.687,2.687,0,0,0-.39,1.47,1.773,1.773,0,0,0,.56,1.34,2.03,2.03,0,0,0,1.43.5,3.73,3.73,0,0,0,.86-0.08l0.66-.23,0.55-.32,0.52-.35v0.01l-0.05.22v0.01h0a0.424,0.424,0,0,0,.36.53l0.01,0.01h1.26l0.02-.01a0.732,0.732,0,0,0,.59-0.53l0.99-4.43,0.05-.36,0.02-.34A1.467,1.467,0,0,0,1054.56,6536.52Zm-2.19,4.98-0.22.29-0.53.29a1.928,1.928,0,0,1-.71.15,1.635,1.635,0,0,1-.78-0.15l-0.26-.52a1.05,1.05,0,0,1,.2-0.69l0.58-.4a4.326,4.326,0,0,1,.89-0.21c0.31-.04.93-0.12,1.01-0.12l0.09,0.17C1052.62,6540.41,1052.45,6541.16,1052.37,6541.5Zm26.91-4.97a5.036,5.036,0,0,0-2.43-.45,10.194,10.194,0,0,0-1.65.13c-0.41.06-.45,0.08-0.7,0.13a0.819,0.819,0,0,0-.6.65l-0.16.71c-0.1.45,0.15,0.43,0.27,0.39a7.237,7.237,0,0,1,.8-0.24,5.621,5.621,0,0,1,1.28-.18,3.22,3.22,0,0,1,1.23.18,0.649,0.649,0,0,1,.42.64l-0.03.2-0.19.12a18.9,18.9,0,0,0-2.01.23,5.971,5.971,0,0,0-1.73.49,2.722,2.722,0,0,0-1.17.95,2.653,2.653,0,0,0-.39,1.46,1.743,1.743,0,0,0,.56,1.34,2.036,2.036,0,0,0,1.43.51,3.54,3.54,0,0,0,.85-0.09l0.66-.23,0.56-.32,0.51-.35,0.01,0.01-0.04.23h-0.01v0.01a0.4,0.4,0,0,0,.36.52l0.01,0.01h1.26l0.02-.01a0.705,0.705,0,0,0,.58-0.53l0.99-4.42,0.06-.37,0.03-.34A1.477,1.477,0,0,0,1079.28,6536.53Zm-2.19,4.98-0.22.29-0.53.28a1.767,1.767,0,0,1-.71.16,1.608,1.608,0,0,1-.78-0.15l-0.26-.53a1.1,1.1,0,0,1,.19-0.68,1.45,1.45,0,0,1,.59-0.41,5.17,5.17,0,0,1,.89-0.2c0.31-.04.92-0.12,1-0.12l0.1,0.17C1077.35,6540.42,1077.17,6541.17,1077.09,6541.51Zm-4.38-6.19a2.131,2.131,0,0,0-.75-0.83,3.186,3.186,0,0,0-1.18-.44,8.344,8.344,0,0,0-1.6-.13h-2.85a0.713,0.713,0,0,0-.65.53l-1.91,8.6a0.41,0.41,0,0,0,.41.53h1.36a0.725,0.725,0,0,0,.66-0.53l0.46-2.09a0.713,0.713,0,0,1,.65-0.53h0.39a6.334,6.334,0,0,0,3.89-1.06,3.345,3.345,0,0,0,1.38-2.79A2.8,2.8,0,0,0,1072.71,6535.32Zm-2.93,2.82a2.881,2.881,0,0,1-1.72.46h-0.34a0.418,0.418,0,0,1-.41-0.54l0.41-1.82a0.682,0.682,0,0,1,.65-0.53l0.44-.01a2.205,2.205,0,0,1,1.18.28,0.951,0.951,0,0,1,.4.83A1.585,1.585,0,0,1,1069.78,6538.14Zm14.6-3.62a0.415,0.415,0,0,0-.41-0.53h-1.22a0.68,0.68,0,0,0-.58.43l-0.07.11-0.06.28-1.7,7.99-0.06.24v0.01a0.4,0.4,0,0,0,.34.5l0.03,0.03h1.26a0.705,0.705,0,0,0,.59-0.44l0.06-.1,1.82-8.52h0Zm-20.57,1.66h-1.63a1.156,1.156,0,0,0-.86.54s-1.95,3.45-2.14,3.79h-0.22l-0.61-3.77a0.752,0.752,0,0,0-.74-0.55h-1.22a0.419,0.419,0,0,0-.41.54s0.93,5.43,1.11,6.71a1.418,1.418,0,0,1-.01.83l-1.2,2.17c-0.18.29-.09,0.53,0.21,0.53h1.41a1.137,1.137,0,0,0,.85-0.53l5.42-9.46S1064.29,6536.17,1063.81,6536.18Z" transform="translate(-1039.06 -6533.03)"/>
</svg>
