<svg xmlns="http://www.w3.org/2000/svg" xmlns:xlink="http://www.w3.org/1999/xlink" width="14.38" height="18" viewBox="0 0 14.38 18">
  <defs>
    <style>
      .cls-1 {
        fill-rule: evenodd;
        filter: url(#filter);
      }
    </style>
    <filter id="filter" x="1750.81" y="97.5" width="14.38" height="18" filterUnits="userSpaceOnUse">
      <feFlood result="flood" flood-color="#434343"/>
      <feComposite result="composite" operator="in" in2="SourceGraphic"/>
      <feBlend result="blend" in2="SourceGraphic"/>
    </filter>
  </defs>
  <path id="Pinterest-icon" class="cls-1" d="M1758.24,97.5c-4.86,0-7.44,3.16-7.44,6.607,0,1.6.88,3.591,2.29,4.223,0.21,0.1.33,0.057,0.38-.145,0.04-.153.22-0.889,0.31-1.237a0.311,0.311,0,0,0-.07-0.313,4.123,4.123,0,0,1-.84-2.487,4.8,4.8,0,0,1,5.08-4.737,4.385,4.385,0,0,1,4.71,4.439c0,2.953-1.54,5-3.54,5a1.6,1.6,0,0,1-1.67-1.973,21.329,21.329,0,0,0,.94-3.633,1.39,1.39,0,0,0-1.43-1.536c-1.12,0-2.04,1.133-2.04,2.654a3.8,3.8,0,0,0,.34,1.618s-1.11,4.571-1.32,5.425a12.476,12.476,0,0,0,.08,3.988,0.115,0.115,0,0,0,.21.055,14.26,14.26,0,0,0,1.84-3.509c0.14-.514.7-2.6,0.7-2.6a3.039,3.039,0,0,0,2.58,1.251c3.4,0,5.85-3.029,5.85-6.789C1765.19,100.2,1762.15,97.5,1758.24,97.5Z" transform="translate(-1750.81 -97.5)"/>
</svg>
