<svg xmlns="http://www.w3.org/2000/svg" xmlns:xlink="http://www.w3.org/1999/xlink" width="48" height="14.97" viewBox="0 0 48 14.97">
  <defs>
    <style>
      .cls-1 {
        fill-rule: evenodd;
        filter: url(#filter);
      }
    </style>
    <filter id="filter" x="1084" y="6585" width="48" height="14.97" filterUnits="userSpaceOnUse">
      <feFlood result="flood" flood-color="#fff"/>
      <feComposite result="composite" operator="in" in2="SourceGraphic"/>
      <feBlend result="blend" in2="SourceGraphic"/>
    </filter>
  </defs>
  <path id="Visa" class="cls-1" d="M1103.22,6585.26l-2.44,14.5h3.9l2.44-14.5h-3.9Zm-5.71.02-3.82,9.89-0.41-1.49a15.44,15.44,0,0,0-5.4-6.02l3.49,12.1,4.13-.01,6.14-14.47h-4.13Zm-5.71,1.04a1.564,1.564,0,0,0-1.7-1.18h-6.05l-0.05.29c4.71,1.15,7.82,3.94,9.12,7.29Zm23.23,1.72a7.157,7.157,0,0,1,2.92.56l0.35,0.17,0.53-3.15a10.018,10.018,0,0,0-3.5-.61c-3.85,0-6.57,1.97-6.59,4.79-0.02,2.08,1.94,3.25,3.42,3.94,1.52,0.71,2.03,1.16,2.02,1.8-0.01.97-1.21,1.41-2.33,1.41a8.166,8.166,0,0,1-3.68-.75l-0.5-.24-0.55,3.25a12.434,12.434,0,0,0,4.35.77c4.1,0,6.76-1.94,6.79-4.95,0.02-1.65-1.02-2.91-3.28-3.94-1.36-.67-2.19-1.12-2.19-1.8C1112.79,6588.69,1113.5,6588.04,1115.03,6588.04Zm13.81-2.76h-3.01a1.945,1.945,0,0,0-2.05,1.2l-5.79,13.29h4.1s0.66-1.78.82-2.18c0.44,0,4.42.01,4.99,0.01,0.12,0.51.48,2.17,0.48,2.17H1132Zm-4.81,9.35c0.32-.84,1.55-4.06,1.55-4.06-0.02.04,0.32-.84,0.52-1.38l0.27,1.25s0.74,3.46.9,4.19h-3.24Z" transform="translate(-1084 -6585)"/>
</svg>
